# xmcd
#
# Track frame offsets: 
#        182
#        13520
#        34225
#        49827
#        61917
#        78095
#        98617
#        111810
#        131880
#        147327
#        161845
#
# Disc length: 2343 seconds
#
# Revision: 0
# Processed by: cddbd v1.5.2PL0 Copyright (c) Steve Scherf et al.
# Submitted via: ExactAudioCopy v0.95b3
#
DISCID=8e09250b
DTITLE=Man X - Country Roads
DYEAR=1992
DGENRE=Country
TTITLE0=Country roads
TTITLE1=Million dollar home
TTITLE2=The key to your heart
TTITLE3=Bitter tears
TTITLE4=Mainstreet
TTITLE5=There are no cowboys anymore
TTITLE6=Heaven
TTITLE7=Dark as a dungeon
TTITLE8=Gone riding
TTITLE9=I saw the light
TTITLE10=Coutry roads (ac. version)
EXTD=
EXTT0=
EXTT1=
EXTT2=
EXTT3=
EXTT4=
EXTT5=
EXTT6=
EXTT7=
EXTT8=
EXTT9=
EXTT10=
PLAYORDER=
